<svg xmlns="http://www.w3.org/2000/svg" xmlns:xlink="http://www.w3.org/1999/xlink" width="48" zoomAndPan="magnify" viewBox="0 0 36 43.92" height="48" preserveAspectRatio="xMidYMid meet" version="1.0"><defs><clipPath id="044a61d69b"><path d="M 5 4.0625 L 31 4.0625 L 31 13 L 5 13 Z M 5 4.0625 " clip-rule="nonzero"/></clipPath><clipPath id="ab4bc7b42c"><path d="M 4.097656 12.492188 L 31.796875 12.492188 L 31.796875 24.0625 L 4.097656 24.0625 Z M 4.097656 12.492188 " clip-rule="nonzero"/></clipPath><clipPath id="f8e221788b"><path d="M 5.152344 23.292969 L 30.726562 23.292969 L 30.726562 31.761719 L 5.152344 31.761719 Z M 5.152344 23.292969 " clip-rule="nonzero"/></clipPath></defs><g clip-path="url(#044a61d69b)"><path fill="#ef363c" d="M 29.65625 10.511719 C 29.113281 9.65625 28.472656 8.851562 27.738281 8.121094 C 25.125 5.503906 21.644531 4.0625 17.945312 4.0625 C 14.246094 4.0625 10.769531 5.503906 8.152344 8.121094 C 7.417969 8.851562 6.777344 9.65625 6.234375 10.511719 C 5.828125 11.152344 5.480469 11.820312 5.183594 12.515625 L 30.707031 12.515625 C 30.414062 11.820312 30.0625 11.152344 29.65625 10.511719 " fill-opacity="1" fill-rule="nonzero"/></g><g clip-path="url(#ab4bc7b42c)"><path fill="#f6ed20" d="M 31.796875 17.914062 C 31.796875 16.027344 31.417969 14.199219 30.707031 12.515625 L 5.183594 12.515625 C 4.472656 14.199219 4.097656 16.027344 4.097656 17.914062 C 4.097656 20.074219 4.589844 22.15625 5.519531 24.039062 L 30.371094 24.039062 C 31.300781 22.15625 31.796875 20.074219 31.796875 17.914062 " fill-opacity="1" fill-rule="nonzero"/></g><g clip-path="url(#f8e221788b)"><path fill="#ef363c" d="M 5.183594 23.308594 C 5.355469 23.65625 5.871094 24.722656 6.070312 25.050781 C 6.648438 26.007812 7.34375 26.898438 8.152344 27.707031 C 10.769531 30.320312 14.246094 31.761719 17.945312 31.761719 C 21.644531 31.761719 25.121094 30.320312 27.738281 27.707031 C 28.546875 26.898438 29.242188 26.007812 29.820312 25.050781 C 30.019531 24.722656 30.535156 23.65625 30.707031 23.308594 L 5.183594 23.308594 " fill-opacity="1" fill-rule="nonzero"/></g></svg>