<svg xmlns="http://www.w3.org/2000/svg" xmlns:xlink="http://www.w3.org/1999/xlink" width="48" zoomAndPan="magnify" viewBox="0 0 36 43.92" height="48" preserveAspectRatio="xMidYMid meet" version="1.0"><defs><clipPath id="bd0aa4dc05"><path d="M 3.625 3.59375 L 32.074219 3.59375 L 32.074219 32.042969 L 3.625 32.042969 Z M 3.625 3.59375 " clip-rule="nonzero"/></clipPath><clipPath id="e360050e0c"><path d="M 3.625 17 L 32.074219 17 L 32.074219 22 L 3.625 22 Z M 3.625 17 " clip-rule="nonzero"/></clipPath><clipPath id="21057663e9"><path d="M 8 3.59375 L 28 3.59375 L 28 8 L 8 8 Z M 8 3.59375 " clip-rule="nonzero"/></clipPath><clipPath id="d9c3bf3d01"><path d="M 3.625 3.59375 L 17 3.59375 L 17 18 L 3.625 18 Z M 3.625 3.59375 " clip-rule="nonzero"/></clipPath><clipPath id="9882e535a7"><path d="M 3.625 13 L 7 13 L 7 17 L 3.625 17 Z M 3.625 13 " clip-rule="nonzero"/></clipPath></defs><g clip-path="url(#bd0aa4dc05)"><path fill="#e92b2b" d="M 17.851562 3.59375 C 9.996094 3.59375 3.625 9.960938 3.625 17.816406 C 3.625 25.671875 9.996094 32.042969 17.851562 32.042969 C 25.707031 32.042969 32.074219 25.671875 32.074219 17.816406 C 32.074219 9.960938 25.707031 3.59375 17.851562 3.59375 Z M 17.851562 3.59375 " fill-opacity="1" fill-rule="evenodd"/></g><path fill="#fbfbfb" d="M 30.171875 24.929688 L 5.527344 24.929688 C 6.304688 26.269531 7.289062 27.46875 8.441406 28.484375 L 27.257812 28.484375 C 28.410156 27.46875 29.398438 26.269531 30.171875 24.929688 Z M 30.171875 24.929688 " fill-opacity="1" fill-rule="evenodd"/><g clip-path="url(#e360050e0c)"><path fill="#fbfbfb" d="M 32.074219 17.816406 L 3.625 17.816406 C 3.625 19.046875 3.78125 20.238281 4.074219 21.375 L 31.625 21.375 C 31.917969 20.238281 32.074219 19.046875 32.074219 17.816406 Z M 32.074219 17.816406 " fill-opacity="1" fill-rule="evenodd"/></g><path fill="#fbfbfb" d="M 30.171875 10.707031 L 5.53125 10.707031 C 4.894531 11.804688 4.398438 13 4.074219 14.261719 L 31.625 14.261719 C 31.300781 13 30.808594 11.804688 30.171875 10.707031 Z M 30.171875 10.707031 " fill-opacity="1" fill-rule="evenodd"/><g clip-path="url(#21057663e9)"><path fill="#fbfbfb" d="M 27.257812 7.148438 L 8.441406 7.148438 C 10.949219 4.9375 14.242188 3.59375 17.847656 3.59375 C 21.457031 3.59375 24.75 4.9375 27.257812 7.148438 Z M 27.257812 7.148438 " fill-opacity="1" fill-rule="evenodd"/></g><g clip-path="url(#d9c3bf3d01)"><path fill="#2a2faf" d="M 16.429688 3.664062 L 16.429688 17.816406 L 3.625 17.816406 C 3.625 10.441406 9.238281 4.378906 16.429688 3.664062 Z M 16.429688 3.664062 " fill-opacity="1" fill-rule="evenodd"/></g><path fill="#fbfbfb" d="M 5.796875 10.265625 L 6.402344 10.265625 L 5.566406 10.875 L 5.886719 11.855469 L 5.183594 11.34375 C 5.371094 10.976562 5.574219 10.617188 5.796875 10.265625 Z M 5.796875 10.265625 " fill-opacity="1" fill-rule="evenodd"/><g clip-path="url(#9882e535a7)"><path fill="#fbfbfb" d="M 3.964844 14.726562 C 3.976562 14.664062 3.992188 14.597656 4.007812 14.53125 L 4.730469 14.53125 L 5.050781 13.550781 L 5.367188 14.53125 L 6.402344 14.53125 L 5.566406 15.140625 L 5.886719 16.125 L 5.050781 15.515625 L 4.214844 16.125 L 4.53125 15.140625 Z M 3.964844 14.726562 " fill-opacity="1" fill-rule="evenodd"/></g><path fill="#fbfbfb" d="M 8.691406 6.933594 C 9.089844 6.597656 9.503906 6.289062 9.933594 6 L 10.667969 6 L 9.832031 6.605469 L 10.152344 7.589844 L 9.316406 6.980469 L 8.480469 7.589844 Z M 8.691406 6.933594 " fill-opacity="1" fill-rule="evenodd"/><path fill="#fbfbfb" d="M 9.316406 9.285156 L 9.636719 10.265625 L 10.667969 10.265625 L 9.832031 10.875 L 10.152344 11.855469 L 9.316406 11.25 L 8.480469 11.855469 L 8.800781 10.875 L 7.964844 10.265625 L 8.996094 10.265625 Z M 9.316406 9.285156 " fill-opacity="1" fill-rule="nonzero"/><path fill="#fbfbfb" d="M 9.316406 13.550781 L 9.636719 14.53125 L 10.667969 14.53125 L 9.832031 15.140625 L 10.152344 16.125 L 9.316406 15.515625 L 8.480469 16.125 L 8.800781 15.140625 L 7.964844 14.53125 L 8.996094 14.53125 Z M 9.316406 13.550781 " fill-opacity="1" fill-rule="nonzero"/><path fill="#fbfbfb" d="M 13.582031 5.015625 L 13.902344 6 L 14.9375 6 L 14.101562 6.605469 L 14.417969 7.589844 L 13.582031 6.980469 L 12.746094 7.589844 L 13.066406 6.605469 L 12.230469 6 L 13.265625 6 Z M 13.582031 5.015625 " fill-opacity="1" fill-rule="nonzero"/><path fill="#fbfbfb" d="M 13.582031 9.285156 L 13.902344 10.265625 L 14.9375 10.265625 L 14.101562 10.875 L 14.417969 11.855469 L 13.582031 11.25 L 12.746094 11.855469 L 13.066406 10.875 L 12.230469 10.265625 L 13.265625 10.265625 Z M 13.582031 9.285156 " fill-opacity="1" fill-rule="nonzero"/><path fill="#fbfbfb" d="M 13.582031 13.550781 L 13.902344 14.53125 L 14.9375 14.53125 L 14.101562 15.140625 L 14.417969 16.125 L 13.582031 15.515625 L 12.746094 16.125 L 13.066406 15.140625 L 12.230469 14.53125 L 13.265625 14.53125 Z M 13.582031 13.550781 " fill-opacity="1" fill-rule="nonzero"/></svg>