<svg xmlns="http://www.w3.org/2000/svg" xmlns:xlink="http://www.w3.org/1999/xlink" width="48" zoomAndPan="magnify" viewBox="0 0 36 43.92" height="48" preserveAspectRatio="xMidYMid meet" version="1.0"><defs><clipPath id="8f38fb4cf8"><path d="M 3.625 3.59375 L 32.074219 3.59375 L 32.074219 32.042969 L 3.625 32.042969 Z M 3.625 3.59375 " clip-rule="nonzero"/></clipPath></defs><g clip-path="url(#8f38fb4cf8)"><path fill="#009846" d="M 32.074219 17.816406 C 32.074219 25.671875 25.707031 32.042969 17.851562 32.042969 C 9.996094 32.042969 3.625 25.671875 3.625 17.816406 C 3.625 9.960938 9.996094 3.59375 17.851562 3.59375 C 25.707031 3.59375 32.074219 9.960938 32.074219 17.816406 " fill-opacity="1" fill-rule="nonzero"/></g><path fill="#ffdf00" d="M 4.921875 17.601562 L 17.804688 9.273438 L 30.75 17.582031 L 17.832031 25.976562 L 4.921875 17.601562 " fill-opacity="1" fill-rule="nonzero"/><path fill="#002279" d="M 23.304688 17.574219 C 23.304688 20.625 20.859375 23.101562 17.84375 23.101562 C 14.832031 23.101562 12.386719 20.625 12.386719 17.574219 C 12.386719 14.523438 14.832031 12.050781 17.84375 12.050781 C 20.859375 12.050781 23.304688 14.523438 23.304688 17.574219 " fill-opacity="1" fill-rule="nonzero"/><path fill="#ffffff" d="M 17.339844 15.402344 C 21.074219 16.195312 23.242188 18.40625 23.242188 18.40625 C 23.183594 18.835938 23.039062 19.28125 23.039062 19.28125 C 20.640625 16.984375 17.644531 16.363281 17.644531 16.363281 C 14.972656 15.714844 12.5625 16.183594 12.5625 16.183594 C 12.636719 15.871094 12.855469 15.335938 12.855469 15.335938 C 12.855469 15.335938 14.675781 14.992188 17.339844 15.402344 " fill-opacity="1" fill-rule="nonzero"/><path fill="#ffffff" d="M 13.382812 16.355469 L 13.4375 16.519531 L 13.605469 16.519531 L 13.46875 16.621094 L 13.523438 16.785156 L 13.382812 16.683594 L 13.246094 16.785156 L 13.300781 16.621094 L 13.160156 16.519531 L 13.332031 16.519531 L 13.382812 16.355469 " fill-opacity="1" fill-rule="nonzero"/><path fill="#ffffff" d="M 15.753906 17.609375 L 15.800781 17.75 L 15.949219 17.75 L 15.828125 17.839844 L 15.875 17.980469 L 15.753906 17.894531 L 15.636719 17.980469 L 15.679688 17.839844 L 15.5625 17.75 L 15.710938 17.75 L 15.753906 17.609375 " fill-opacity="1" fill-rule="nonzero"/><path fill="#ffffff" d="M 14.40625 18.441406 L 14.433594 18.527344 L 14.523438 18.527344 L 14.453125 18.582031 L 14.480469 18.667969 L 14.40625 18.613281 L 14.335938 18.667969 L 14.363281 18.582031 L 14.289062 18.527344 L 14.378906 18.527344 L 14.40625 18.441406 " fill-opacity="1" fill-rule="nonzero"/><path fill="#ffffff" d="M 13.867188 18.664062 L 13.925781 18.847656 L 14.113281 18.847656 L 13.960938 18.960938 L 14.019531 19.140625 L 13.867188 19.03125 L 13.714844 19.140625 L 13.773438 18.960938 L 13.621094 18.847656 L 13.808594 18.847656 L 13.867188 18.664062 " fill-opacity="1" fill-rule="nonzero"/><path fill="#ffffff" d="M 13.191406 19.222656 L 13.234375 19.359375 L 13.371094 19.359375 L 13.257812 19.441406 L 13.300781 19.574219 L 13.191406 19.492188 L 13.078125 19.574219 L 13.121094 19.441406 L 13.007812 19.359375 L 13.148438 19.359375 L 13.191406 19.222656 " fill-opacity="1" fill-rule="nonzero"/><path fill="#ffffff" d="M 15.003906 19.277344 L 15.046875 19.410156 L 15.1875 19.410156 L 15.074219 19.492188 L 15.117188 19.628906 L 15.003906 19.546875 L 14.890625 19.628906 L 14.933594 19.492188 L 14.820312 19.410156 L 14.960938 19.410156 L 15.003906 19.277344 " fill-opacity="1" fill-rule="nonzero"/><path fill="#ffffff" d="M 14.835938 19.832031 L 14.878906 19.964844 L 15.019531 19.964844 L 14.90625 20.046875 L 14.949219 20.183594 L 14.835938 20.101562 L 14.726562 20.183594 L 14.769531 20.046875 L 14.65625 19.964844 L 14.792969 19.964844 L 14.835938 19.832031 " fill-opacity="1" fill-rule="nonzero"/><path fill="#ffffff" d="M 15.644531 20.304688 L 15.691406 20.457031 L 15.847656 20.457031 L 15.722656 20.550781 L 15.769531 20.699219 L 15.644531 20.605469 L 15.519531 20.699219 L 15.566406 20.550781 L 15.441406 20.457031 L 15.597656 20.457031 L 15.644531 20.304688 " fill-opacity="1" fill-rule="nonzero"/><path fill="#ffffff" d="M 17.828125 19.859375 L 17.875 20.011719 L 18.03125 20.011719 L 17.90625 20.105469 L 17.953125 20.253906 L 17.828125 20.160156 L 17.703125 20.253906 L 17.75 20.105469 L 17.625 20.011719 L 17.78125 20.011719 L 17.828125 19.859375 " fill-opacity="1" fill-rule="nonzero"/><path fill="#ffffff" d="M 18.46875 18.773438 L 18.515625 18.914062 L 18.660156 18.914062 L 18.542969 19 L 18.585938 19.140625 L 18.46875 19.050781 L 18.351562 19.140625 L 18.398438 19 L 18.28125 18.914062 L 18.425781 18.914062 L 18.46875 18.773438 " fill-opacity="1" fill-rule="nonzero"/><path fill="#ffffff" d="M 17.828125 18.269531 L 17.871094 18.410156 L 18.015625 18.410156 L 17.902344 18.496094 L 17.945312 18.636719 L 17.828125 18.550781 L 17.710938 18.636719 L 17.753906 18.496094 L 17.636719 18.410156 L 17.785156 18.410156 L 17.828125 18.269531 " fill-opacity="1" fill-rule="nonzero"/><path fill="#ffffff" d="M 17.277344 18.777344 L 17.316406 18.902344 L 17.445312 18.902344 L 17.339844 18.976562 L 17.378906 19.101562 L 17.277344 19.023438 L 17.171875 19.101562 L 17.210938 18.976562 L 17.109375 18.902344 L 17.238281 18.902344 L 17.277344 18.777344 " fill-opacity="1" fill-rule="nonzero"/><path fill="#ffffff" d="M 17.550781 19.21875 L 17.578125 19.3125 L 17.675781 19.3125 L 17.597656 19.367188 L 17.628906 19.460938 L 17.550781 19.402344 L 17.472656 19.460938 L 17.503906 19.367188 L 17.425781 19.3125 L 17.519531 19.3125 L 17.550781 19.21875 " fill-opacity="1" fill-rule="nonzero"/><path fill="#ffffff" d="M 19.316406 17.1875 L 19.347656 17.277344 L 19.441406 17.277344 L 19.363281 17.335938 L 19.394531 17.425781 L 19.316406 17.371094 L 19.242188 17.425781 L 19.269531 17.335938 L 19.191406 17.277344 L 19.289062 17.277344 L 19.316406 17.1875 " fill-opacity="1" fill-rule="nonzero"/><path fill="#ffffff" d="M 19.527344 15.617188 L 19.582031 15.789062 L 19.757812 15.789062 L 19.613281 15.894531 L 19.667969 16.0625 L 19.527344 15.957031 L 19.382812 16.0625 L 19.4375 15.894531 L 19.296875 15.789062 L 19.472656 15.789062 L 19.527344 15.617188 " fill-opacity="1" fill-rule="nonzero"/><path fill="#ffffff" d="M 21.652344 19.289062 L 21.707031 19.457031 L 21.882812 19.457031 L 21.742188 19.5625 L 21.792969 19.730469 L 21.652344 19.625 L 21.507812 19.730469 L 21.5625 19.5625 L 21.421875 19.457031 L 21.597656 19.457031 L 21.652344 19.289062 " fill-opacity="1" fill-rule="nonzero"/><path fill="#ffffff" d="M 21.535156 20.242188 L 21.582031 20.382812 L 21.730469 20.382812 L 21.609375 20.472656 L 21.65625 20.613281 L 21.535156 20.527344 L 21.417969 20.613281 L 21.464844 20.472656 L 21.34375 20.382812 L 21.492188 20.382812 L 21.535156 20.242188 " fill-opacity="1" fill-rule="nonzero"/><path fill="#ffffff" d="M 21.875 19.820312 L 21.921875 19.960938 L 22.066406 19.960938 L 21.949219 20.050781 L 21.996094 20.191406 L 21.875 20.101562 L 21.757812 20.191406 L 21.800781 20.050781 L 21.683594 19.960938 L 21.828125 19.960938 L 21.875 19.820312 " fill-opacity="1" fill-rule="nonzero"/><path fill="#ffffff" d="M 22.410156 19.402344 L 22.445312 19.511719 L 22.554688 19.511719 L 22.464844 19.578125 L 22.5 19.6875 L 22.410156 19.621094 L 22.316406 19.6875 L 22.351562 19.578125 L 22.261719 19.511719 L 22.375 19.511719 L 22.410156 19.402344 " fill-opacity="1" fill-rule="nonzero"/><path fill="#ffffff" d="M 21.105469 20.578125 L 21.140625 20.6875 L 21.25 20.6875 L 21.160156 20.753906 L 21.195312 20.863281 L 21.105469 20.796875 L 21.011719 20.863281 L 21.046875 20.753906 L 20.957031 20.6875 L 21.070312 20.6875 L 21.105469 20.578125 " fill-opacity="1" fill-rule="nonzero"/><path fill="#ffffff" d="M 20.5625 20.988281 L 20.605469 21.113281 L 20.734375 21.113281 L 20.628906 21.1875 L 20.667969 21.3125 L 20.5625 21.238281 L 20.460938 21.3125 L 20.5 21.1875 L 20.394531 21.113281 L 20.523438 21.113281 L 20.5625 20.988281 " fill-opacity="1" fill-rule="nonzero"/><path fill="#ffffff" d="M 20.527344 20.476562 L 20.5625 20.578125 L 20.667969 20.578125 L 20.582031 20.644531 L 20.613281 20.746094 L 20.527344 20.683594 L 20.441406 20.746094 L 20.472656 20.644531 L 20.386719 20.578125 L 20.496094 20.578125 L 20.527344 20.476562 " fill-opacity="1" fill-rule="nonzero"/><path fill="#ffffff" d="M 19.9375 20.671875 L 19.96875 20.777344 L 20.078125 20.777344 L 19.992188 20.839844 L 20.023438 20.941406 L 19.9375 20.878906 L 19.851562 20.941406 L 19.882812 20.839844 L 19.796875 20.777344 L 19.902344 20.777344 L 19.9375 20.671875 " fill-opacity="1" fill-rule="nonzero"/><path fill="#ffffff" d="M 19.035156 20.527344 L 19.070312 20.628906 L 19.175781 20.628906 L 19.089844 20.695312 L 19.121094 20.796875 L 19.035156 20.734375 L 18.949219 20.796875 L 18.984375 20.695312 L 18.898438 20.628906 L 19.003906 20.628906 L 19.035156 20.527344 " fill-opacity="1" fill-rule="nonzero"/><path fill="#ffffff" d="M 20.5625 21.59375 L 20.59375 21.695312 L 20.699219 21.695312 L 20.613281 21.757812 L 20.648438 21.863281 L 20.5625 21.800781 L 20.472656 21.863281 L 20.507812 21.757812 L 20.421875 21.695312 L 20.527344 21.695312 L 20.5625 21.59375 " fill-opacity="1" fill-rule="nonzero"/><path fill="#ffffff" d="M 19.472656 21.132812 L 19.511719 21.257812 L 19.644531 21.257812 L 19.539062 21.335938 L 19.578125 21.460938 L 19.472656 21.382812 L 19.367188 21.460938 L 19.40625 21.335938 L 19.300781 21.257812 L 19.433594 21.257812 L 19.472656 21.132812 " fill-opacity="1" fill-rule="nonzero"/><path fill="#ffffff" d="M 17.84375 21.828125 L 17.863281 21.882812 L 17.925781 21.882812 L 17.875 21.921875 L 17.894531 21.980469 L 17.84375 21.941406 L 17.796875 21.980469 L 17.8125 21.921875 L 17.765625 21.882812 L 17.824219 21.882812 L 17.84375 21.828125 " fill-opacity="1" fill-rule="nonzero"/><path fill="#009b2d" d="M 12.933594 15.722656 C 12.957031 15.820312 13.039062 15.898438 13.140625 15.882812 C 13.246094 15.867188 13.289062 15.773438 13.269531 15.667969 C 13.25 15.578125 13.175781 15.488281 13.058594 15.507812 C 12.945312 15.523438 12.910156 15.621094 12.933594 15.722656 Z M 13.339844 15.65625 C 13.371094 15.8125 13.277344 15.910156 13.148438 15.929688 C 13.015625 15.949219 12.898438 15.875 12.863281 15.734375 C 12.828125 15.589844 12.910156 15.476562 13.050781 15.457031 C 13.199219 15.4375 13.3125 15.519531 13.339844 15.65625 " fill-opacity="1" fill-rule="nonzero"/><path fill="#009b2d" d="M 13.726562 15.605469 C 13.75 15.601562 13.773438 15.601562 13.796875 15.597656 C 13.867188 15.59375 13.910156 15.554688 13.902344 15.5 C 13.894531 15.441406 13.839844 15.417969 13.769531 15.425781 C 13.734375 15.429688 13.710938 15.433594 13.699219 15.4375 C 13.710938 15.492188 13.71875 15.546875 13.726562 15.605469 Z M 13.625 15.402344 C 13.660156 15.390625 13.707031 15.382812 13.757812 15.378906 C 13.832031 15.375 13.878906 15.382812 13.917969 15.40625 C 13.945312 15.421875 13.964844 15.453125 13.96875 15.488281 C 13.976562 15.550781 13.941406 15.59375 13.886719 15.613281 C 13.886719 15.613281 13.886719 15.617188 13.886719 15.617188 C 13.929688 15.625 13.957031 15.65625 13.976562 15.703125 C 14.003906 15.765625 14.019531 15.808594 14.035156 15.828125 C 14.011719 15.828125 13.988281 15.832031 13.964844 15.832031 C 13.953125 15.820312 13.9375 15.78125 13.914062 15.722656 C 13.890625 15.660156 13.859375 15.640625 13.796875 15.644531 C 13.777344 15.644531 13.753906 15.648438 13.734375 15.648438 C 13.746094 15.714844 13.753906 15.78125 13.765625 15.847656 C 13.742188 15.851562 13.722656 15.851562 13.699219 15.855469 C 13.675781 15.703125 13.648438 15.550781 13.625 15.402344 " fill-opacity="1" fill-rule="nonzero"/><path fill="#009b2d" d="M 14.398438 15.761719 C 14.417969 15.761719 14.441406 15.761719 14.46875 15.761719 C 14.609375 15.757812 14.683594 15.6875 14.675781 15.5625 C 14.667969 15.453125 14.59375 15.382812 14.445312 15.386719 C 14.410156 15.386719 14.382812 15.390625 14.367188 15.394531 C 14.378906 15.515625 14.386719 15.640625 14.398438 15.761719 Z M 14.292969 15.355469 C 14.332031 15.347656 14.382812 15.339844 14.4375 15.339844 C 14.539062 15.335938 14.609375 15.355469 14.660156 15.394531 C 14.710938 15.429688 14.742188 15.484375 14.746094 15.558594 C 14.75 15.632812 14.726562 15.695312 14.683594 15.738281 C 14.636719 15.78125 14.558594 15.808594 14.457031 15.808594 C 14.410156 15.8125 14.371094 15.8125 14.335938 15.808594 C 14.324219 15.65625 14.308594 15.507812 14.292969 15.355469 " fill-opacity="1" fill-rule="nonzero"/><path fill="#009b2d" d="M 15.339844 15.59375 C 15.273438 15.59375 15.203125 15.589844 15.136719 15.585938 C 15.136719 15.644531 15.136719 15.699219 15.140625 15.753906 C 15.214844 15.757812 15.289062 15.757812 15.363281 15.761719 C 15.363281 15.78125 15.363281 15.796875 15.363281 15.8125 C 15.265625 15.808594 15.171875 15.804688 15.074219 15.800781 C 15.070312 15.648438 15.066406 15.496094 15.0625 15.339844 C 15.160156 15.34375 15.253906 15.347656 15.351562 15.351562 C 15.351562 15.367188 15.351562 15.382812 15.351562 15.402344 C 15.277344 15.398438 15.203125 15.394531 15.132812 15.390625 C 15.132812 15.441406 15.132812 15.488281 15.136719 15.539062 C 15.203125 15.539062 15.269531 15.542969 15.339844 15.546875 C 15.339844 15.5625 15.339844 15.578125 15.339844 15.59375 " fill-opacity="1" fill-rule="nonzero"/><path fill="#009b2d" d="M 16.121094 15.667969 C 16.125 15.605469 16.125 15.527344 16.128906 15.472656 C 16.128906 15.472656 16.128906 15.46875 16.125 15.46875 C 16.105469 15.523438 16.078125 15.578125 16.046875 15.636719 C 16.011719 15.707031 15.976562 15.78125 15.945312 15.851562 C 15.925781 15.851562 15.910156 15.847656 15.894531 15.847656 C 15.871094 15.769531 15.84375 15.695312 15.820312 15.621094 C 15.796875 15.554688 15.78125 15.492188 15.765625 15.4375 C 15.761719 15.492188 15.753906 15.570312 15.746094 15.640625 C 15.742188 15.703125 15.734375 15.769531 15.726562 15.835938 C 15.707031 15.832031 15.683594 15.832031 15.664062 15.832031 C 15.679688 15.679688 15.695312 15.523438 15.714844 15.371094 C 15.742188 15.375 15.773438 15.378906 15.800781 15.378906 C 15.828125 15.457031 15.855469 15.53125 15.882812 15.609375 C 15.902344 15.667969 15.917969 15.722656 15.925781 15.769531 C 15.925781 15.769531 15.929688 15.769531 15.929688 15.769531 C 15.945312 15.722656 15.964844 15.675781 15.992188 15.621094 C 16.027344 15.550781 16.0625 15.476562 16.101562 15.40625 C 16.128906 15.410156 16.160156 15.414062 16.1875 15.417969 C 16.1875 15.570312 16.1875 15.726562 16.183594 15.878906 C 16.164062 15.878906 16.140625 15.875 16.121094 15.871094 C 16.121094 15.804688 16.121094 15.738281 16.121094 15.667969 " fill-opacity="1" fill-rule="nonzero"/><path fill="#009b2d" d="M 17.195312 15.824219 C 17.128906 15.808594 17.0625 15.796875 16.996094 15.785156 C 16.988281 15.839844 16.976562 15.894531 16.96875 15.949219 C 17.042969 15.960938 17.117188 15.976562 17.1875 15.992188 C 17.183594 16.007812 17.183594 16.023438 17.179688 16.039062 C 17.085938 16.019531 16.992188 16.003906 16.898438 15.984375 C 16.917969 15.835938 16.941406 15.683594 16.964844 15.53125 C 17.0625 15.550781 17.15625 15.566406 17.25 15.585938 C 17.246094 15.601562 17.246094 15.617188 17.242188 15.636719 C 17.167969 15.621094 17.097656 15.605469 17.027344 15.59375 C 17.019531 15.640625 17.011719 15.6875 17.003906 15.738281 C 17.070312 15.75 17.136719 15.761719 17.203125 15.777344 C 17.199219 15.792969 17.199219 15.808594 17.195312 15.824219 " fill-opacity="1" fill-rule="nonzero"/><path fill="#009b2d" d="M 17.988281 15.992188 C 18 16 18.019531 16.007812 18.039062 16.011719 C 18.117188 16.035156 18.175781 16.015625 18.191406 15.957031 C 18.210938 15.898438 18.167969 15.855469 18.097656 15.835938 C 18.066406 15.828125 18.042969 15.824219 18.03125 15.820312 C 18.015625 15.878906 18 15.9375 17.988281 15.992188 Z M 17.976562 15.761719 C 18.007812 15.765625 18.054688 15.773438 18.105469 15.789062 C 18.171875 15.808594 18.214844 15.835938 18.242188 15.867188 C 18.261719 15.894531 18.269531 15.933594 18.257812 15.972656 C 18.246094 16.011719 18.226562 16.039062 18.191406 16.054688 C 18.148438 16.078125 18.089844 16.078125 18.027344 16.058594 C 18.007812 16.054688 17.988281 16.046875 17.972656 16.039062 C 17.960938 16.101562 17.945312 16.160156 17.929688 16.21875 C 17.90625 16.210938 17.886719 16.207031 17.863281 16.199219 C 17.902344 16.054688 17.9375 15.910156 17.976562 15.761719 " fill-opacity="1" fill-rule="nonzero"/><path fill="#009b2d" d="M 18.609375 16.167969 C 18.632812 16.175781 18.652344 16.183594 18.675781 16.191406 C 18.746094 16.214844 18.800781 16.199219 18.816406 16.148438 C 18.835938 16.09375 18.796875 16.050781 18.730469 16.027344 C 18.699219 16.015625 18.675781 16.011719 18.664062 16.011719 C 18.644531 16.0625 18.628906 16.117188 18.609375 16.167969 Z M 18.609375 15.949219 C 18.644531 15.957031 18.695312 15.96875 18.738281 15.984375 C 18.808594 16.007812 18.851562 16.035156 18.875 16.070312 C 18.890625 16.097656 18.894531 16.132812 18.882812 16.164062 C 18.863281 16.222656 18.808594 16.246094 18.75 16.242188 C 18.785156 16.269531 18.796875 16.308594 18.792969 16.355469 C 18.785156 16.421875 18.785156 16.46875 18.789062 16.488281 C 18.765625 16.480469 18.746094 16.472656 18.722656 16.464844 C 18.71875 16.449219 18.722656 16.410156 18.726562 16.351562 C 18.734375 16.285156 18.714844 16.253906 18.65625 16.234375 C 18.636719 16.226562 18.617188 16.21875 18.597656 16.210938 C 18.574219 16.273438 18.554688 16.339844 18.535156 16.402344 C 18.511719 16.394531 18.492188 16.386719 18.472656 16.378906 C 18.519531 16.238281 18.5625 16.09375 18.609375 15.949219 " fill-opacity="1" fill-rule="nonzero"/><path fill="#009b2d" d="M 19.195312 16.398438 C 19.160156 16.488281 19.183594 16.59375 19.28125 16.632812 C 19.378906 16.671875 19.46875 16.613281 19.507812 16.519531 C 19.546875 16.4375 19.53125 16.328125 19.425781 16.285156 C 19.320312 16.242188 19.234375 16.304688 19.195312 16.398438 Z M 19.574219 16.546875 C 19.511719 16.6875 19.378906 16.722656 19.257812 16.675781 C 19.132812 16.625 19.078125 16.503906 19.128906 16.375 C 19.179688 16.238281 19.3125 16.1875 19.449219 16.242188 C 19.582031 16.296875 19.632812 16.421875 19.574219 16.546875 " fill-opacity="1" fill-rule="nonzero"/><path fill="#009b2d" d="M 20.132812 17.039062 C 20.101562 17.03125 20.039062 17.019531 19.976562 16.992188 C 19.90625 16.957031 19.859375 16.914062 19.832031 16.855469 C 19.808594 16.800781 19.808594 16.734375 19.839844 16.667969 C 19.898438 16.546875 20.042969 16.5 20.203125 16.578125 C 20.261719 16.605469 20.296875 16.640625 20.316406 16.65625 C 20.300781 16.667969 20.289062 16.679688 20.277344 16.691406 C 20.257812 16.671875 20.230469 16.648438 20.179688 16.625 C 20.0625 16.566406 19.953125 16.59375 19.90625 16.695312 C 19.855469 16.800781 19.894531 16.894531 20.003906 16.949219 C 20.042969 16.96875 20.074219 16.976562 20.089844 16.976562 C 20.109375 16.9375 20.132812 16.894531 20.152344 16.855469 C 20.121094 16.839844 20.089844 16.824219 20.058594 16.808594 C 20.0625 16.792969 20.070312 16.78125 20.078125 16.765625 C 20.128906 16.792969 20.183594 16.816406 20.234375 16.84375 C 20.199219 16.90625 20.164062 16.972656 20.132812 17.039062 " fill-opacity="1" fill-rule="nonzero"/><path fill="#009b2d" d="M 20.597656 17.027344 C 20.617188 17.039062 20.636719 17.050781 20.65625 17.0625 C 20.71875 17.097656 20.777344 17.089844 20.804688 17.042969 C 20.835938 16.992188 20.804688 16.945312 20.742188 16.910156 C 20.714844 16.894531 20.691406 16.886719 20.679688 16.882812 C 20.652344 16.929688 20.625 16.980469 20.597656 17.027344 Z M 20.640625 16.8125 C 20.675781 16.824219 20.71875 16.847656 20.761719 16.871094 C 20.828125 16.90625 20.863281 16.9375 20.878906 16.976562 C 20.890625 17.007812 20.886719 17.042969 20.871094 17.074219 C 20.835938 17.125 20.777344 17.136719 20.722656 17.125 C 20.722656 17.125 20.71875 17.125 20.71875 17.125 C 20.75 17.15625 20.753906 17.195312 20.738281 17.242188 C 20.71875 17.304688 20.707031 17.347656 20.707031 17.371094 C 20.6875 17.359375 20.667969 17.347656 20.648438 17.335938 C 20.648438 17.320312 20.65625 17.28125 20.675781 17.226562 C 20.695312 17.164062 20.683594 17.128906 20.628906 17.097656 C 20.609375 17.085938 20.59375 17.078125 20.574219 17.066406 C 20.539062 17.125 20.507812 17.179688 20.472656 17.238281 C 20.453125 17.226562 20.433594 17.21875 20.414062 17.207031 C 20.488281 17.078125 20.566406 16.945312 20.640625 16.8125 " fill-opacity="1" fill-rule="nonzero"/><path fill="#009b2d" d="M 21.320312 17.488281 C 21.261719 17.453125 21.207031 17.414062 21.148438 17.378906 C 21.117188 17.425781 21.085938 17.472656 21.054688 17.519531 C 21.117188 17.558594 21.183594 17.597656 21.246094 17.636719 C 21.234375 17.652344 21.226562 17.664062 21.214844 17.679688 C 21.136719 17.625 21.054688 17.574219 20.96875 17.523438 C 21.054688 17.398438 21.140625 17.269531 21.222656 17.140625 C 21.308594 17.191406 21.390625 17.242188 21.472656 17.292969 C 21.460938 17.308594 21.453125 17.320312 21.441406 17.335938 C 21.378906 17.296875 21.320312 17.257812 21.253906 17.21875 C 21.230469 17.257812 21.203125 17.296875 21.175781 17.339844 C 21.234375 17.375 21.292969 17.410156 21.347656 17.449219 C 21.339844 17.460938 21.332031 17.476562 21.320312 17.488281 " fill-opacity="1" fill-rule="nonzero"/><path fill="#009b2d" d="M 21.515625 17.789062 C 21.53125 17.820312 21.558594 17.855469 21.597656 17.878906 C 21.652344 17.921875 21.707031 17.917969 21.734375 17.882812 C 21.761719 17.847656 21.753906 17.8125 21.710938 17.75 C 21.65625 17.679688 21.632812 17.621094 21.671875 17.570312 C 21.714844 17.511719 21.804688 17.507812 21.890625 17.566406 C 21.9375 17.597656 21.964844 17.628906 21.976562 17.652344 C 21.960938 17.664062 21.945312 17.671875 21.929688 17.679688 C 21.921875 17.664062 21.898438 17.632812 21.859375 17.605469 C 21.800781 17.5625 21.753906 17.578125 21.734375 17.601562 C 21.707031 17.636719 21.722656 17.671875 21.769531 17.734375 C 21.824219 17.808594 21.835938 17.863281 21.792969 17.917969 C 21.75 17.972656 21.664062 17.988281 21.5625 17.917969 C 21.523438 17.890625 21.484375 17.847656 21.472656 17.820312 C 21.488281 17.808594 21.5 17.800781 21.515625 17.789062 " fill-opacity="1" fill-rule="nonzero"/><path fill="#009b2d" d="M 22.015625 18.144531 C 22.027344 18.175781 22.054688 18.214844 22.089844 18.242188 C 22.144531 18.285156 22.195312 18.285156 22.226562 18.25 C 22.257812 18.21875 22.25 18.179688 22.210938 18.121094 C 22.160156 18.046875 22.140625 17.984375 22.183594 17.933594 C 22.230469 17.878906 22.320312 17.878906 22.402344 17.945312 C 22.449219 17.980469 22.472656 18.011719 22.484375 18.035156 C 22.46875 18.042969 22.453125 18.050781 22.4375 18.0625 C 22.425781 18.042969 22.40625 18.011719 22.371094 17.980469 C 22.3125 17.9375 22.265625 17.949219 22.246094 17.972656 C 22.214844 18.003906 22.226562 18.039062 22.269531 18.105469 C 22.320312 18.183594 22.332031 18.238281 22.285156 18.289062 C 22.238281 18.34375 22.148438 18.351562 22.054688 18.277344 C 22.015625 18.246094 21.980469 18.203125 21.96875 18.175781 C 21.984375 18.164062 22 18.15625 22.015625 18.144531 " fill-opacity="1" fill-rule="nonzero"/><path fill="#009b2d" d="M 22.640625 18.449219 C 22.570312 18.519531 22.554688 18.625 22.636719 18.695312 C 22.714844 18.765625 22.824219 18.742188 22.898438 18.671875 C 22.964844 18.605469 22.992188 18.5 22.90625 18.421875 C 22.816406 18.347656 22.710938 18.375 22.640625 18.449219 Z M 22.953125 18.71875 C 22.839844 18.828125 22.699219 18.8125 22.597656 18.726562 C 22.496094 18.636719 22.488281 18.503906 22.582031 18.402344 C 22.683594 18.296875 22.832031 18.292969 22.941406 18.390625 C 23.054688 18.488281 23.054688 18.621094 22.953125 18.71875 " fill-opacity="1" fill-rule="nonzero"/></svg>